<mxfile host="app.diagrams.net" modified="2020-12-20T07:42:43.828Z" agent="5.0 (Windows NT 10.0; Win64; x64) AppleWebKit/537.36 (KHTML, like Gecko) Chrome/86.0.4240.111 Safari/537.36" etag="BeqB3ns2rkR73ifX1Haq" version="14.1.1" type="github">
  <diagram id="C5RBs43oDa-KdzZeNtuy" name="Page-1">
    <mxGraphModel dx="1422" dy="762" grid="1" gridSize="10" guides="1" tooltips="1" connect="1" arrows="1" fold="1" page="1" pageScale="1" pageWidth="827" pageHeight="1169" math="0" shadow="0">
      <root>
        <mxCell id="WIyWlLk6GJQsqaUBKTNV-0" />
        <mxCell id="WIyWlLk6GJQsqaUBKTNV-1" parent="WIyWlLk6GJQsqaUBKTNV-0" />
        <mxCell id="A3kbNb1TipBI972J--of-3" style="edgeStyle=orthogonalEdgeStyle;rounded=0;orthogonalLoop=1;jettySize=auto;html=1;" edge="1" parent="WIyWlLk6GJQsqaUBKTNV-1" source="WIyWlLk6GJQsqaUBKTNV-3" target="A3kbNb1TipBI972J--of-1">
          <mxGeometry relative="1" as="geometry" />
        </mxCell>
        <mxCell id="WIyWlLk6GJQsqaUBKTNV-3" value="5번문제:달을 입력받고 계절을 출력하는 프로그램" style="rounded=1;whiteSpace=wrap;html=1;fontSize=12;glass=0;strokeWidth=1;shadow=0;" parent="WIyWlLk6GJQsqaUBKTNV-1" vertex="1">
          <mxGeometry x="160" y="50" width="370" height="70" as="geometry" />
        </mxCell>
        <mxCell id="WIyWlLk6GJQsqaUBKTNV-7" value="month 변수값" style="rounded=1;whiteSpace=wrap;html=1;fontSize=12;glass=0;strokeWidth=1;shadow=0;" parent="WIyWlLk6GJQsqaUBKTNV-1" vertex="1">
          <mxGeometry x="520" y="190" width="120" height="40" as="geometry" />
        </mxCell>
        <mxCell id="A3kbNb1TipBI972J--of-10" style="edgeStyle=orthogonalEdgeStyle;rounded=0;orthogonalLoop=1;jettySize=auto;html=1;" edge="1" parent="WIyWlLk6GJQsqaUBKTNV-1" source="WIyWlLk6GJQsqaUBKTNV-11" target="A3kbNb1TipBI972J--of-9">
          <mxGeometry relative="1" as="geometry" />
        </mxCell>
        <mxCell id="WIyWlLk6GJQsqaUBKTNV-11" value="12.1.2 입력 =&amp;gt; 겨울&lt;br&gt;3.4.5 입력 =&amp;gt; 봄&lt;br&gt;6.7.8 입력 =&amp;gt; 여름&lt;br&gt;9.10.11 입력 =&amp;gt; 가을&lt;br&gt;다른거 입력 =&amp;gt; 잘못된 값" style="rounded=1;whiteSpace=wrap;html=1;fontSize=12;glass=0;strokeWidth=1;shadow=0;align=left;" parent="WIyWlLk6GJQsqaUBKTNV-1" vertex="1">
          <mxGeometry x="260" y="760" width="170" height="130" as="geometry" />
        </mxCell>
        <mxCell id="WIyWlLk6GJQsqaUBKTNV-12" value="month의 case값" style="rounded=1;whiteSpace=wrap;html=1;fontSize=12;glass=0;strokeWidth=1;shadow=0;" parent="WIyWlLk6GJQsqaUBKTNV-1" vertex="1">
          <mxGeometry x="640" y="430" width="120" height="140" as="geometry" />
        </mxCell>
        <mxCell id="A3kbNb1TipBI972J--of-4" style="edgeStyle=orthogonalEdgeStyle;rounded=0;orthogonalLoop=1;jettySize=auto;html=1;entryX=0;entryY=0.5;entryDx=0;entryDy=0;" edge="1" parent="WIyWlLk6GJQsqaUBKTNV-1" source="A3kbNb1TipBI972J--of-1" target="WIyWlLk6GJQsqaUBKTNV-7">
          <mxGeometry relative="1" as="geometry" />
        </mxCell>
        <mxCell id="A3kbNb1TipBI972J--of-6" style="edgeStyle=orthogonalEdgeStyle;rounded=0;orthogonalLoop=1;jettySize=auto;html=1;" edge="1" parent="WIyWlLk6GJQsqaUBKTNV-1" source="A3kbNb1TipBI972J--of-1" target="A3kbNb1TipBI972J--of-5">
          <mxGeometry relative="1" as="geometry" />
        </mxCell>
        <mxCell id="A3kbNb1TipBI972J--of-1" value="&#xa;&#xa;&lt;span style=&quot;color: rgb(0, 0, 0); font-size: 12px; font-style: normal; font-weight: 400; letter-spacing: normal; text-indent: 0px; text-transform: none; word-spacing: 0px; display: inline; float: none;&quot;&gt;int month = int.Parse(Console.ReadLine());&lt;/span&gt;&#xa;&#xa;" style="rounded=0;whiteSpace=wrap;html=1;" vertex="1" parent="WIyWlLk6GJQsqaUBKTNV-1">
          <mxGeometry x="250" y="175" width="190" height="70" as="geometry" />
        </mxCell>
        <mxCell id="A3kbNb1TipBI972J--of-7" style="edgeStyle=orthogonalEdgeStyle;rounded=0;orthogonalLoop=1;jettySize=auto;html=1;entryX=0;entryY=0.5;entryDx=0;entryDy=0;" edge="1" parent="WIyWlLk6GJQsqaUBKTNV-1" source="A3kbNb1TipBI972J--of-5" target="WIyWlLk6GJQsqaUBKTNV-12">
          <mxGeometry relative="1" as="geometry" />
        </mxCell>
        <mxCell id="A3kbNb1TipBI972J--of-8" style="edgeStyle=orthogonalEdgeStyle;rounded=0;orthogonalLoop=1;jettySize=auto;html=1;" edge="1" parent="WIyWlLk6GJQsqaUBKTNV-1" source="A3kbNb1TipBI972J--of-5" target="WIyWlLk6GJQsqaUBKTNV-11">
          <mxGeometry relative="1" as="geometry" />
        </mxCell>
        <mxCell id="A3kbNb1TipBI972J--of-5" value="&lt;span style=&quot;font-family: , &amp;quot;dotum&amp;quot; , &amp;quot;helvetica&amp;quot; , &amp;quot;apple sd gothic neo&amp;quot; , sans-serif&quot;&gt;switch (month)&lt;/span&gt;&lt;br style=&quot;font-family: , &amp;quot;dotum&amp;quot; , &amp;quot;helvetica&amp;quot; , &amp;quot;apple sd gothic neo&amp;quot; , sans-serif&quot;&gt;&lt;span style=&quot;font-family: , &amp;quot;dotum&amp;quot; , &amp;quot;helvetica&amp;quot; , &amp;quot;apple sd gothic neo&amp;quot; , sans-serif&quot;&gt;&amp;nbsp;&amp;nbsp;&amp;nbsp;&amp;nbsp;&amp;nbsp;&amp;nbsp;&amp;nbsp;&amp;nbsp;&amp;nbsp;&amp;nbsp;&amp;nbsp;&amp;nbsp;&amp;nbsp;&amp;nbsp;&amp;nbsp; {&lt;/span&gt;&lt;br style=&quot;font-family: , &amp;quot;dotum&amp;quot; , &amp;quot;helvetica&amp;quot; , &amp;quot;apple sd gothic neo&amp;quot; , sans-serif&quot;&gt;&lt;span style=&quot;font-family: , &amp;quot;dotum&amp;quot; , &amp;quot;helvetica&amp;quot; , &amp;quot;apple sd gothic neo&amp;quot; , sans-serif&quot;&gt;&amp;nbsp;&amp;nbsp;&amp;nbsp;&amp;nbsp;&amp;nbsp;&amp;nbsp;&amp;nbsp;&amp;nbsp;&amp;nbsp;&amp;nbsp;&amp;nbsp;&amp;nbsp;&amp;nbsp;&amp;nbsp;&amp;nbsp;&amp;nbsp;&amp;nbsp;&amp;nbsp;&amp;nbsp; case 12:&lt;/span&gt;&lt;br style=&quot;font-family: , &amp;quot;dotum&amp;quot; , &amp;quot;helvetica&amp;quot; , &amp;quot;apple sd gothic neo&amp;quot; , sans-serif&quot;&gt;&lt;span style=&quot;font-family: , &amp;quot;dotum&amp;quot; , &amp;quot;helvetica&amp;quot; , &amp;quot;apple sd gothic neo&amp;quot; , sans-serif&quot;&gt;&amp;nbsp;&amp;nbsp;&amp;nbsp;&amp;nbsp;&amp;nbsp;&amp;nbsp;&amp;nbsp;&amp;nbsp;&amp;nbsp;&amp;nbsp;&amp;nbsp;&amp;nbsp;&amp;nbsp;&amp;nbsp;&amp;nbsp;&amp;nbsp;&amp;nbsp;&amp;nbsp;&amp;nbsp; case 1:&lt;/span&gt;&lt;br style=&quot;font-family: , &amp;quot;dotum&amp;quot; , &amp;quot;helvetica&amp;quot; , &amp;quot;apple sd gothic neo&amp;quot; , sans-serif&quot;&gt;&lt;span style=&quot;font-family: , &amp;quot;dotum&amp;quot; , &amp;quot;helvetica&amp;quot; , &amp;quot;apple sd gothic neo&amp;quot; , sans-serif&quot;&gt;&amp;nbsp;&amp;nbsp;&amp;nbsp;&amp;nbsp;&amp;nbsp;&amp;nbsp;&amp;nbsp;&amp;nbsp;&amp;nbsp;&amp;nbsp;&amp;nbsp;&amp;nbsp;&amp;nbsp;&amp;nbsp;&amp;nbsp;&amp;nbsp;&amp;nbsp;&amp;nbsp;&amp;nbsp; case 2:&lt;/span&gt;&lt;br style=&quot;font-family: , &amp;quot;dotum&amp;quot; , &amp;quot;helvetica&amp;quot; , &amp;quot;apple sd gothic neo&amp;quot; , sans-serif&quot;&gt;&lt;span style=&quot;font-family: , &amp;quot;dotum&amp;quot; , &amp;quot;helvetica&amp;quot; , &amp;quot;apple sd gothic neo&amp;quot; , sans-serif&quot;&gt;&amp;nbsp;&amp;nbsp;&amp;nbsp;&amp;nbsp;&amp;nbsp;&amp;nbsp;&amp;nbsp;&amp;nbsp;&amp;nbsp;&amp;nbsp;&amp;nbsp;&amp;nbsp;&amp;nbsp;&amp;nbsp;&amp;nbsp;&amp;nbsp;&amp;nbsp;&amp;nbsp;&amp;nbsp;&amp;nbsp;&amp;nbsp;&amp;nbsp;&amp;nbsp; Console.WriteLine(&quot;겨울&quot;);&lt;/span&gt;&lt;br style=&quot;font-family: , &amp;quot;dotum&amp;quot; , &amp;quot;helvetica&amp;quot; , &amp;quot;apple sd gothic neo&amp;quot; , sans-serif&quot;&gt;&lt;span style=&quot;font-family: , &amp;quot;dotum&amp;quot; , &amp;quot;helvetica&amp;quot; , &amp;quot;apple sd gothic neo&amp;quot; , sans-serif&quot;&gt;&amp;nbsp;&amp;nbsp;&amp;nbsp;&amp;nbsp;&amp;nbsp;&amp;nbsp;&amp;nbsp;&amp;nbsp;&amp;nbsp;&amp;nbsp;&amp;nbsp;&amp;nbsp;&amp;nbsp;&amp;nbsp;&amp;nbsp;&amp;nbsp;&amp;nbsp;&amp;nbsp;&amp;nbsp;&amp;nbsp;&amp;nbsp;&amp;nbsp;&amp;nbsp; break;&lt;/span&gt;&lt;br style=&quot;font-family: , &amp;quot;dotum&amp;quot; , &amp;quot;helvetica&amp;quot; , &amp;quot;apple sd gothic neo&amp;quot; , sans-serif&quot;&gt;&lt;span style=&quot;font-family: , &amp;quot;dotum&amp;quot; , &amp;quot;helvetica&amp;quot; , &amp;quot;apple sd gothic neo&amp;quot; , sans-serif&quot;&gt;&amp;nbsp;&amp;nbsp;&amp;nbsp;&amp;nbsp;&amp;nbsp;&amp;nbsp;&amp;nbsp;&amp;nbsp;&amp;nbsp;&amp;nbsp;&amp;nbsp;&amp;nbsp;&amp;nbsp;&amp;nbsp;&amp;nbsp;&amp;nbsp;&amp;nbsp;&amp;nbsp;&amp;nbsp; case 3:&lt;/span&gt;&lt;br style=&quot;font-family: , &amp;quot;dotum&amp;quot; , &amp;quot;helvetica&amp;quot; , &amp;quot;apple sd gothic neo&amp;quot; , sans-serif&quot;&gt;&lt;span style=&quot;font-family: , &amp;quot;dotum&amp;quot; , &amp;quot;helvetica&amp;quot; , &amp;quot;apple sd gothic neo&amp;quot; , sans-serif&quot;&gt;&amp;nbsp;&amp;nbsp;&amp;nbsp;&amp;nbsp;&amp;nbsp;&amp;nbsp;&amp;nbsp;&amp;nbsp;&amp;nbsp;&amp;nbsp;&amp;nbsp;&amp;nbsp;&amp;nbsp;&amp;nbsp;&amp;nbsp;&amp;nbsp;&amp;nbsp;&amp;nbsp;&amp;nbsp; case 4:&lt;/span&gt;&lt;br style=&quot;font-family: , &amp;quot;dotum&amp;quot; , &amp;quot;helvetica&amp;quot; , &amp;quot;apple sd gothic neo&amp;quot; , sans-serif&quot;&gt;&lt;span style=&quot;font-family: , &amp;quot;dotum&amp;quot; , &amp;quot;helvetica&amp;quot; , &amp;quot;apple sd gothic neo&amp;quot; , sans-serif&quot;&gt;&amp;nbsp;&amp;nbsp;&amp;nbsp;&amp;nbsp;&amp;nbsp;&amp;nbsp;&amp;nbsp;&amp;nbsp;&amp;nbsp;&amp;nbsp;&amp;nbsp;&amp;nbsp;&amp;nbsp;&amp;nbsp;&amp;nbsp;&amp;nbsp;&amp;nbsp;&amp;nbsp;&amp;nbsp; case 5:&lt;/span&gt;&lt;br style=&quot;font-family: , &amp;quot;dotum&amp;quot; , &amp;quot;helvetica&amp;quot; , &amp;quot;apple sd gothic neo&amp;quot; , sans-serif&quot;&gt;&lt;span style=&quot;font-family: , &amp;quot;dotum&amp;quot; , &amp;quot;helvetica&amp;quot; , &amp;quot;apple sd gothic neo&amp;quot; , sans-serif&quot;&gt;&amp;nbsp;&amp;nbsp;&amp;nbsp;&amp;nbsp;&amp;nbsp;&amp;nbsp;&amp;nbsp;&amp;nbsp;&amp;nbsp;&amp;nbsp;&amp;nbsp;&amp;nbsp;&amp;nbsp;&amp;nbsp;&amp;nbsp;&amp;nbsp;&amp;nbsp;&amp;nbsp;&amp;nbsp;&amp;nbsp;&amp;nbsp;&amp;nbsp;&amp;nbsp; Console.WriteLine(&quot;봄&quot;);&lt;/span&gt;&lt;br style=&quot;font-family: , &amp;quot;dotum&amp;quot; , &amp;quot;helvetica&amp;quot; , &amp;quot;apple sd gothic neo&amp;quot; , sans-serif&quot;&gt;&lt;span style=&quot;font-family: , &amp;quot;dotum&amp;quot; , &amp;quot;helvetica&amp;quot; , &amp;quot;apple sd gothic neo&amp;quot; , sans-serif&quot;&gt;&amp;nbsp;&amp;nbsp;&amp;nbsp;&amp;nbsp;&amp;nbsp;&amp;nbsp;&amp;nbsp;&amp;nbsp;&amp;nbsp;&amp;nbsp;&amp;nbsp;&amp;nbsp;&amp;nbsp;&amp;nbsp;&amp;nbsp;&amp;nbsp;&amp;nbsp;&amp;nbsp;&amp;nbsp;&amp;nbsp;&amp;nbsp;&amp;nbsp;&amp;nbsp; break;&lt;/span&gt;&lt;br style=&quot;font-family: , &amp;quot;dotum&amp;quot; , &amp;quot;helvetica&amp;quot; , &amp;quot;apple sd gothic neo&amp;quot; , sans-serif&quot;&gt;&lt;span style=&quot;font-family: , &amp;quot;dotum&amp;quot; , &amp;quot;helvetica&amp;quot; , &amp;quot;apple sd gothic neo&amp;quot; , sans-serif&quot;&gt;&amp;nbsp;&amp;nbsp;&amp;nbsp;&amp;nbsp;&amp;nbsp;&amp;nbsp;&amp;nbsp;&amp;nbsp;&amp;nbsp;&amp;nbsp;&amp;nbsp;&amp;nbsp;&amp;nbsp;&amp;nbsp;&amp;nbsp;&amp;nbsp;&amp;nbsp;&amp;nbsp;&amp;nbsp; case 6:&lt;/span&gt;&lt;br style=&quot;font-family: , &amp;quot;dotum&amp;quot; , &amp;quot;helvetica&amp;quot; , &amp;quot;apple sd gothic neo&amp;quot; , sans-serif&quot;&gt;&lt;span style=&quot;font-family: , &amp;quot;dotum&amp;quot; , &amp;quot;helvetica&amp;quot; , &amp;quot;apple sd gothic neo&amp;quot; , sans-serif&quot;&gt;&amp;nbsp;&amp;nbsp;&amp;nbsp;&amp;nbsp;&amp;nbsp;&amp;nbsp;&amp;nbsp;&amp;nbsp;&amp;nbsp;&amp;nbsp;&amp;nbsp;&amp;nbsp;&amp;nbsp;&amp;nbsp;&amp;nbsp;&amp;nbsp;&amp;nbsp;&amp;nbsp;&amp;nbsp; case 7:&lt;/span&gt;&lt;br style=&quot;font-family: , &amp;quot;dotum&amp;quot; , &amp;quot;helvetica&amp;quot; , &amp;quot;apple sd gothic neo&amp;quot; , sans-serif&quot;&gt;&lt;span style=&quot;font-family: , &amp;quot;dotum&amp;quot; , &amp;quot;helvetica&amp;quot; , &amp;quot;apple sd gothic neo&amp;quot; , sans-serif&quot;&gt;&amp;nbsp;&amp;nbsp;&amp;nbsp;&amp;nbsp;&amp;nbsp;&amp;nbsp;&amp;nbsp;&amp;nbsp;&amp;nbsp;&amp;nbsp;&amp;nbsp;&amp;nbsp;&amp;nbsp;&amp;nbsp;&amp;nbsp;&amp;nbsp;&amp;nbsp;&amp;nbsp;&amp;nbsp; case 8:&lt;/span&gt;&lt;br style=&quot;font-family: , &amp;quot;dotum&amp;quot; , &amp;quot;helvetica&amp;quot; , &amp;quot;apple sd gothic neo&amp;quot; , sans-serif&quot;&gt;&lt;span style=&quot;font-family: , &amp;quot;dotum&amp;quot; , &amp;quot;helvetica&amp;quot; , &amp;quot;apple sd gothic neo&amp;quot; , sans-serif&quot;&gt;&amp;nbsp;&amp;nbsp;&amp;nbsp;&amp;nbsp;&amp;nbsp;&amp;nbsp;&amp;nbsp;&amp;nbsp;&amp;nbsp;&amp;nbsp;&amp;nbsp;&amp;nbsp;&amp;nbsp;&amp;nbsp;&amp;nbsp;&amp;nbsp;&amp;nbsp;&amp;nbsp;&amp;nbsp;&amp;nbsp;&amp;nbsp;&amp;nbsp;&amp;nbsp; Console.WriteLine(&quot;여름&quot;);&lt;/span&gt;&lt;br style=&quot;font-family: , &amp;quot;dotum&amp;quot; , &amp;quot;helvetica&amp;quot; , &amp;quot;apple sd gothic neo&amp;quot; , sans-serif&quot;&gt;&lt;span style=&quot;font-family: , &amp;quot;dotum&amp;quot; , &amp;quot;helvetica&amp;quot; , &amp;quot;apple sd gothic neo&amp;quot; , sans-serif&quot;&gt;&amp;nbsp;&amp;nbsp;&amp;nbsp;&amp;nbsp;&amp;nbsp;&amp;nbsp;&amp;nbsp;&amp;nbsp;&amp;nbsp;&amp;nbsp;&amp;nbsp;&amp;nbsp;&amp;nbsp;&amp;nbsp;&amp;nbsp;&amp;nbsp;&amp;nbsp;&amp;nbsp;&amp;nbsp;&amp;nbsp;&amp;nbsp;&amp;nbsp;&amp;nbsp; break;&lt;/span&gt;&lt;br style=&quot;font-family: , &amp;quot;dotum&amp;quot; , &amp;quot;helvetica&amp;quot; , &amp;quot;apple sd gothic neo&amp;quot; , sans-serif&quot;&gt;&lt;span style=&quot;font-family: , &amp;quot;dotum&amp;quot; , &amp;quot;helvetica&amp;quot; , &amp;quot;apple sd gothic neo&amp;quot; , sans-serif&quot;&gt;&amp;nbsp;&amp;nbsp;&amp;nbsp;&amp;nbsp;&amp;nbsp;&amp;nbsp;&amp;nbsp;&amp;nbsp;&amp;nbsp;&amp;nbsp;&amp;nbsp;&amp;nbsp;&amp;nbsp;&amp;nbsp;&amp;nbsp;&amp;nbsp;&amp;nbsp;&amp;nbsp;&amp;nbsp; case 9:&lt;/span&gt;&lt;br style=&quot;font-family: , &amp;quot;dotum&amp;quot; , &amp;quot;helvetica&amp;quot; , &amp;quot;apple sd gothic neo&amp;quot; , sans-serif&quot;&gt;&lt;span style=&quot;font-family: , &amp;quot;dotum&amp;quot; , &amp;quot;helvetica&amp;quot; , &amp;quot;apple sd gothic neo&amp;quot; , sans-serif&quot;&gt;&amp;nbsp;&amp;nbsp;&amp;nbsp;&amp;nbsp;&amp;nbsp;&amp;nbsp;&amp;nbsp;&amp;nbsp;&amp;nbsp;&amp;nbsp;&amp;nbsp;&amp;nbsp;&amp;nbsp;&amp;nbsp;&amp;nbsp;&amp;nbsp;&amp;nbsp;&amp;nbsp;&amp;nbsp; case 10:&lt;/span&gt;&lt;br style=&quot;font-family: , &amp;quot;dotum&amp;quot; , &amp;quot;helvetica&amp;quot; , &amp;quot;apple sd gothic neo&amp;quot; , sans-serif&quot;&gt;&lt;span style=&quot;font-family: , &amp;quot;dotum&amp;quot; , &amp;quot;helvetica&amp;quot; , &amp;quot;apple sd gothic neo&amp;quot; , sans-serif&quot;&gt;&amp;nbsp;&amp;nbsp;&amp;nbsp;&amp;nbsp;&amp;nbsp;&amp;nbsp;&amp;nbsp;&amp;nbsp;&amp;nbsp;&amp;nbsp;&amp;nbsp;&amp;nbsp;&amp;nbsp;&amp;nbsp;&amp;nbsp;&amp;nbsp;&amp;nbsp;&amp;nbsp;&amp;nbsp; case 11:&lt;/span&gt;&lt;br style=&quot;font-family: , &amp;quot;dotum&amp;quot; , &amp;quot;helvetica&amp;quot; , &amp;quot;apple sd gothic neo&amp;quot; , sans-serif&quot;&gt;&lt;span style=&quot;font-family: , &amp;quot;dotum&amp;quot; , &amp;quot;helvetica&amp;quot; , &amp;quot;apple sd gothic neo&amp;quot; , sans-serif&quot;&gt;&amp;nbsp;&amp;nbsp;&amp;nbsp;&amp;nbsp;&amp;nbsp;&amp;nbsp;&amp;nbsp;&amp;nbsp;&amp;nbsp;&amp;nbsp;&amp;nbsp;&amp;nbsp;&amp;nbsp;&amp;nbsp;&amp;nbsp;&amp;nbsp;&amp;nbsp;&amp;nbsp;&amp;nbsp;&amp;nbsp;&amp;nbsp;&amp;nbsp;&amp;nbsp; Console.WriteLine(&quot;가을&quot;);&lt;/span&gt;&lt;br style=&quot;font-family: , &amp;quot;dotum&amp;quot; , &amp;quot;helvetica&amp;quot; , &amp;quot;apple sd gothic neo&amp;quot; , sans-serif&quot;&gt;&lt;span style=&quot;font-family: , &amp;quot;dotum&amp;quot; , &amp;quot;helvetica&amp;quot; , &amp;quot;apple sd gothic neo&amp;quot; , sans-serif&quot;&gt;&amp;nbsp;&amp;nbsp;&amp;nbsp;&amp;nbsp;&amp;nbsp;&amp;nbsp;&amp;nbsp;&amp;nbsp;&amp;nbsp;&amp;nbsp;&amp;nbsp;&amp;nbsp;&amp;nbsp;&amp;nbsp;&amp;nbsp;&amp;nbsp;&amp;nbsp;&amp;nbsp;&amp;nbsp;&amp;nbsp;&amp;nbsp;&amp;nbsp;&amp;nbsp; break;&lt;/span&gt;&lt;br style=&quot;font-family: , &amp;quot;dotum&amp;quot; , &amp;quot;helvetica&amp;quot; , &amp;quot;apple sd gothic neo&amp;quot; , sans-serif&quot;&gt;&lt;span style=&quot;font-family: , &amp;quot;dotum&amp;quot; , &amp;quot;helvetica&amp;quot; , &amp;quot;apple sd gothic neo&amp;quot; , sans-serif&quot;&gt;&amp;nbsp;&amp;nbsp;&amp;nbsp;&amp;nbsp;&amp;nbsp;&amp;nbsp;&amp;nbsp;&amp;nbsp;&amp;nbsp;&amp;nbsp;&amp;nbsp;&amp;nbsp;&amp;nbsp;&amp;nbsp;&amp;nbsp;&amp;nbsp;&amp;nbsp;&amp;nbsp;&amp;nbsp; default:&lt;/span&gt;&lt;br style=&quot;font-family: , &amp;quot;dotum&amp;quot; , &amp;quot;helvetica&amp;quot; , &amp;quot;apple sd gothic neo&amp;quot; , sans-serif&quot;&gt;&lt;span style=&quot;font-family: , &amp;quot;dotum&amp;quot; , &amp;quot;helvetica&amp;quot; , &amp;quot;apple sd gothic neo&amp;quot; , sans-serif&quot;&gt;&amp;nbsp;&amp;nbsp;&amp;nbsp;&amp;nbsp;&amp;nbsp;&amp;nbsp;&amp;nbsp;&amp;nbsp;&amp;nbsp;&amp;nbsp;&amp;nbsp;&amp;nbsp;&amp;nbsp;&amp;nbsp;&amp;nbsp;&amp;nbsp;&amp;nbsp;&amp;nbsp;&amp;nbsp;&amp;nbsp;&amp;nbsp;&amp;nbsp;&amp;nbsp; Console.WriteLine(&quot;잘못된 값입니다.&quot;);&lt;/span&gt;&lt;br style=&quot;font-family: , &amp;quot;dotum&amp;quot; , &amp;quot;helvetica&amp;quot; , &amp;quot;apple sd gothic neo&amp;quot; , sans-serif&quot;&gt;&lt;span style=&quot;font-family: , &amp;quot;dotum&amp;quot; , &amp;quot;helvetica&amp;quot; , &amp;quot;apple sd gothic neo&amp;quot; , sans-serif&quot;&gt;&amp;nbsp;&amp;nbsp;&amp;nbsp;&amp;nbsp;&amp;nbsp;&amp;nbsp;&amp;nbsp;&amp;nbsp;&amp;nbsp;&amp;nbsp;&amp;nbsp;&amp;nbsp;&amp;nbsp;&amp;nbsp;&amp;nbsp;&amp;nbsp;&amp;nbsp;&amp;nbsp;&amp;nbsp;&amp;nbsp;&amp;nbsp;&amp;nbsp;&amp;nbsp; break;&lt;/span&gt;&lt;br style=&quot;font-family: , &amp;quot;dotum&amp;quot; , &amp;quot;helvetica&amp;quot; , &amp;quot;apple sd gothic neo&amp;quot; , sans-serif&quot;&gt;&lt;span style=&quot;font-family: , &amp;quot;dotum&amp;quot; , &amp;quot;helvetica&amp;quot; , &amp;quot;apple sd gothic neo&amp;quot; , sans-serif&quot;&gt;&amp;nbsp;&amp;nbsp;&amp;nbsp;&amp;nbsp;&amp;nbsp;&amp;nbsp;&amp;nbsp;&amp;nbsp;&amp;nbsp;&amp;nbsp;&amp;nbsp;&amp;nbsp;&amp;nbsp;&amp;nbsp;&amp;nbsp; }&lt;/span&gt;" style="whiteSpace=wrap;html=1;aspect=fixed;align=left;" vertex="1" parent="WIyWlLk6GJQsqaUBKTNV-1">
          <mxGeometry x="165" y="320" width="360" height="360" as="geometry" />
        </mxCell>
        <mxCell id="A3kbNb1TipBI972J--of-9" value="예시: 12 입력&lt;br&gt;&lt;br&gt;결과 값: 겨울" style="rounded=0;whiteSpace=wrap;html=1;align=left;" vertex="1" parent="WIyWlLk6GJQsqaUBKTNV-1">
          <mxGeometry x="510" y="795" width="120" height="60" as="geometry" />
        </mxCell>
      </root>
    </mxGraphModel>
  </diagram>
</mxfile>
